<?xml version="1.0" encoding="UTF-8" standalone="no"?>
<!-- Created with Inkscape (http://www.inkscape.org/) -->

<svg
   xmlns:dc="http://purl.org/dc/elements/1.1/"
   xmlns:cc="http://creativecommons.org/ns#"
   xmlns:rdf="http://www.w3.org/1999/02/22-rdf-syntax-ns#"
   xmlns:svg="http://www.w3.org/2000/svg"
   xmlns="http://www.w3.org/2000/svg"
   xmlns:sodipodi="http://sodipodi.sourceforge.net/DTD/sodipodi-0.dtd"
   xmlns:inkscape="http://www.inkscape.org/namespaces/inkscape"
   width="114.11188mm"
   height="20.472401mm"
   viewBox="0 0 114.11188 20.472401"
   version="1.1"
   id="svg8"
   inkscape:version="0.92.3 (2405546, 2018-03-11)"
   sodipodi:docname="logo.svg">
  <defs
     id="defs2" />
  <sodipodi:namedview
     id="base"
     pagecolor="#ffffff"
     bordercolor="#666666"
     borderopacity="1.0"
     inkscape:pageopacity="0.0"
     inkscape:pageshadow="2"
     inkscape:zoom="10.914027"
     inkscape:cx="83.05561"
     inkscape:cy="28.434772"
     inkscape:document-units="mm"
     inkscape:current-layer="g841"
     showgrid="false"
     fit-margin-top="0"
     fit-margin-left="0"
     fit-margin-right="0"
     fit-margin-bottom="0"
     inkscape:window-width="3762"
     inkscape:window-height="2049"
     inkscape:window-x="78"
     inkscape:window-y="55"
     inkscape:window-maximized="1" />
  <metadata
     id="metadata5">
    <rdf:RDF>
      <cc:Work
         rdf:about="">
        <dc:format>image/svg+xml</dc:format>
        <dc:type
           rdf:resource="http://purl.org/dc/dcmitype/StillImage" />
        <dc:title></dc:title>
      </cc:Work>
    </rdf:RDF>
  </metadata>
  <g
     inkscape:label="Base Text"
     inkscape:groupmode="layer"
     id="layer1"
     transform="translate(-2.4722212,-4.2409422)">
    <g
       aria-label="RMCMC"
       transform="scale(0.26458333)"
       style="font-style:normal;font-variant:normal;font-weight:normal;font-stretch:normal;font-size:96px;line-height:1.25;font-family:'Alfa Slab One';-inkscape-font-specification:'Alfa Slab One';letter-spacing:0px;word-spacing:0px;fill:#000000;fill-opacity:1;stroke:none"
       id="flowRoot815">
      <desc
         id="desc843">RMCMC Text</desc>
      <g
         id="g841">
        <path
           style="fill:none;stroke:#8b8b8b;stroke-opacity:1"
           id="path823"
           d="m 9.3438281,76.316758 h 4.7999999 v -43.2 H 9.3438281 v -15.744 H 53.407828 q 12.384,0 18.912,5.088 6.528,5.088 6.528,16.512 0,6.432 -2.592,11.136 -2.592,4.704 -7.392,6.528 l 0.096,0.96 q 9.216,1.44 9.216,11.328 v 7.392 h 4.512 v 15.744 h -30.432 v -22.56 q 0,-3.744 -1.152,-5.664 -1.056,-1.92 -3.456,-2.592 -2.304,-0.672 -6.624,-0.672 v 15.744 h 6.336 v 15.744 H 9.3438281 Z m 36.8639999,-27.456 q 2.784,0 4.128,-1.44 1.44,-1.536 1.44,-4.704 v -3.456 q 0,-3.168 -1.44,-4.608 -1.344,-1.536 -4.128,-1.536 h -5.184 v 15.744 z" />
        <path
           id="path825"
           style="stroke:none;stroke-opacity:1;fill:#4d9de0;fill-opacity:1"
           d="m 192.10683,33.116758 h -4.8 v 43.2 h 4.8 v 15.744 h -36.288 v -15.744 h 4.608 v -33.6 l -16.32,49.344 h -14.208 l -16.8,-48.864 v 33.12 h 4.608 v 15.744 H 86.218828 v -15.744 h 4.8 v -43.2 h -4.8 v -15.744 h 43.968002 l 9.984,29.952 9.6,-29.952 h 42.336 z" />
        <path
           id="path827"
           style="stroke:none;stroke-opacity:1;fill:#e15554;fill-opacity:1"
           d="m 233.15433,93.404758 q -18.144,0 -28.032,-9.216 -9.792,-9.216 -9.792,-29.472 0,-38.688 37.632,-38.688 9.12,0 16.896,2.208 7.872,2.208 11.712,4.896 v 24 h -23.04 v -6.912 q 0,-3.648 -1.632,-5.376 -1.632,-1.728 -4.896,-1.728 -3.264,0 -4.896,1.728 -1.632,1.728 -1.632,5.376 v 28.992 q 0,3.648 1.632,5.376 1.632,1.728 4.896,1.728 3.264,0 4.896,-1.728 1.632,-1.728 1.632,-5.376 v -7.776 h 23.04 v 24.864 q -3.936,2.688 -11.712,4.896 -7.68,2.208 -16.704,2.208 z" />
        <path
           id="path829"
           style="stroke:none;stroke-opacity:1;fill:#e1bc29;fill-opacity:1"
           d="m 371.16933,33.116758 h -4.8 v 43.2 h 4.8 v 15.744 h -36.288 v -15.744 h 4.608 v -33.6 l -16.32,49.344 h -14.208 l -16.8,-48.864 v 33.12 h 4.608 v 15.744 h -31.488 v -15.744 h 4.8 v -43.2 h -4.8 v -15.744 h 43.968 l 9.984,29.952 9.6,-29.952 h 42.336 z" />
        <path
           id="path831"
           style="stroke:none;stroke-opacity:1;fill:#3bb273;fill-opacity:1"
           d="m 412.21683,93.404758 q -18.144,0 -28.032,-9.216 -9.792,-9.216 -9.792,-29.472 0,-38.688 37.632,-38.688 9.12,0 16.896,2.208 7.872,2.208 11.712,4.896 v 24 h -23.04 v -6.912 q 0,-3.648 -1.632,-5.376 -1.632,-1.728 -4.896,-1.728 -3.264,0 -4.896,1.728 -1.632,1.728 -1.632,5.376 v 28.992 q 0,3.648 1.632,5.376 1.632,1.728 4.896,1.728 3.264,0 4.896,-1.728 1.632,-1.728 1.632,-5.376 v -7.776 h 23.04 v 24.864 q -3.936,2.688 -11.712,4.896 -7.68,2.208 -16.704,2.208 z" />
      </g>
    </g>
  </g>
  <g
     inkscape:groupmode="layer"
     id="layer2"
     inkscape:label="Traces">
    <circle
       style="fill:none;stroke:#282828;stroke-width:0.26458332;stroke-opacity:1"
       id="path852-2"
       cx="1.9176588"
       cy="1.9506224"
       r="0.42094952" />
    <circle
       style="fill:none;stroke:#282828;stroke-width:0.26458332;stroke-opacity:1"
       id="path852-0"
       cx="11.619199"
       cy="1.8041782"
       r="0.42094952" />
    <circle
       style="fill:none;stroke:#282828;stroke-width:0.26458332;stroke-opacity:1"
       id="path852-7"
       cx="4.3030396"
       cy="4.8972688"
       r="0.42094952" />
    <circle
       style="fill:none;stroke:#282828;stroke-width:0.26458332;stroke-opacity:1"
       id="path852-4"
       cx="6.2206984"
       cy="4.8972688"
       r="0.42094952" />
    <circle
       style="fill:none;stroke:#282828;stroke-width:0.26458332;stroke-opacity:1"
       id="path852-73"
       cx="4.770761"
       cy="7.8439155"
       r="0.42094952" />
    <circle
       style="fill:none;stroke:#282828;stroke-width:0.26458332;stroke-opacity:1"
       id="path852-01"
       cx="2.8998744"
       cy="6.8149276"
       r="0.42094952" />
    <circle
       style="fill:none;stroke:#282828;stroke-width:0.26458332;stroke-opacity:1"
       id="path852-6"
       cx="4.3030396"
       cy="3.0263822"
       r="0.42094952" />
    <circle
       style="fill:none;stroke:#282828;stroke-width:0.26458332;stroke-opacity:1"
       id="path852-75"
       cx="9.728611"
       cy="2.97961"
       r="0.42094952" />
    <circle
       style="fill:none;stroke:#282828;stroke-width:0.26458332;stroke-opacity:1"
       id="path852-8"
       cx="13.189752"
       cy="4.8972688"
       r="0.42094952" />
    <circle
       style="fill:none;stroke:#282828;stroke-width:0.26458332;stroke-opacity:1"
       id="path852-07"
       cx="14.546144"
       cy="7.189105"
       r="0.42094952" />
    <circle
       style="fill:none;stroke:#282828;stroke-width:0.26458332;stroke-opacity:1"
       id="path852-03"
       cx="11.926903"
       cy="8.4987259"
       r="0.42094952" />
    <circle
       style="fill:none;stroke:#282828;stroke-width:0.26458332;stroke-opacity:1"
       id="path852-67"
       cx="11.459181"
       cy="10.697018"
       r="0.42094952" />
    <circle
       style="fill:none;stroke:#282828;stroke-width:0.26458332;stroke-opacity:1"
       id="path852-21"
       cx="14.967093"
       cy="12.334044"
       r="0.42094952" />
    <circle
       style="fill:none;stroke:#282828;stroke-width:0.26458332;stroke-opacity:1"
       id="path852-82"
       cx="13.470385"
       cy="10.603474"
       r="0.42094952" />
    <circle
       style="fill:none;stroke:#282828;stroke-width:0.26458332;stroke-opacity:1"
       id="path852-85"
       cx="13.330068"
       cy="14.812968"
       r="0.42094952" />
    <circle
       style="fill:none;stroke:#282828;stroke-width:0.26458332;stroke-opacity:1"
       id="path852-808"
       cx="16.697664"
       cy="-14.812966"
       r="0.42094952"
       transform="scale(1,-1)" />
    <circle
       style="fill:none;stroke:#282828;stroke-width:0.26458332;stroke-opacity:1"
       id="path852-337"
       cx="15.575131"
       cy="17.011261"
       r="0.42094952" />
    <circle
       style="fill:none;stroke:#282828;stroke-width:0.26458332;stroke-opacity:1"
       id="path852-43"
       cx="17.633106"
       cy="17.245121"
       r="0.42094952" />
    <circle
       style="fill:none;stroke:#282828;stroke-width:0.26458332;stroke-opacity:1"
       id="path852-71"
       cx="14.68646"
       cy="18.367653"
       r="0.42094952" />
    <circle
       style="fill:none;stroke:#282828;stroke-width:0.26458332;stroke-opacity:1"
       id="path852-39"
       cx="8.1383572"
       cy="17.993475"
       r="0.42094952" />
    <circle
       style="fill:none;stroke:#282828;stroke-width:0.26458332;stroke-opacity:1"
       id="path852-64"
       cx="7.3429976"
       cy="10.055549"
       r="0.42094952" />
    <circle
       style="fill:none;stroke:#282828;stroke-width:0.26458332;stroke-opacity:1"
       id="path852-20"
       cx="6.8287363"
       cy="12.334044"
       r="0.42094952" />
    <circle
       style="fill:none;stroke:#282828;stroke-width:0.26458332;stroke-opacity:1"
       id="path852-29"
       cx="5.051394"
       cy="12.006639"
       r="0.42094952" />
    <circle
       style="fill:none;stroke:#282828;stroke-width:0.26458332;stroke-opacity:1"
       id="path852-57"
       cx="4.6772165"
       cy="-15.093599"
       r="0.42094952"
       transform="scale(1,-1)" />
    <circle
       style="fill:none;stroke:#282828;stroke-width:0.26458332;stroke-opacity:1"
       id="path852-46"
       cx="0.84189904"
       cy="17.478981"
       r="0.42094952" />
    <circle
       style="fill:none;stroke:#282828;stroke-width:0.26458332;stroke-opacity:1"
       id="path852-12"
       cx="2.759558"
       cy="9.5744858"
       r="0.42094952" />
    <path
       style="fill:none;stroke:#282828;stroke-width:0.26458332px;stroke-linecap:butt;stroke-linejoin:miter;stroke-opacity:1"
       d="M 2.2970331,2.2332713 3.9426686,2.7989585"
       id="path1087"
       inkscape:connector-curvature="0" />
    <path
       style="fill:none;stroke:#282828;stroke-width:0.26458332px;stroke-linecap:butt;stroke-linejoin:miter;stroke-opacity:1"
       d="M 4.3712196,3.4674979 V 4.4788783"
       id="path1089"
       inkscape:connector-curvature="0" />
    <path
       style="fill:none;stroke:#282828;stroke-width:0.26458332px;stroke-linecap:butt;stroke-linejoin:miter;stroke-opacity:1"
       d="M 5.8282929,4.9074292 4.7997707,4.9245715 H 4.7483445"
       id="path1091"
       inkscape:connector-curvature="0" />
    <path
       style="fill:none;stroke:#282828;stroke-width:0.26458332px;stroke-linecap:butt;stroke-linejoin:miter;stroke-opacity:1"
       d="M 6.1882757,5.3016962 5.0911852,7.495877"
       id="path1093"
       inkscape:connector-curvature="0" />
    <path
       style="fill:none;stroke:#282828;stroke-width:0.26458332px;stroke-linecap:butt;stroke-linejoin:miter;stroke-opacity:1"
       d="M 3.2569872,7.050184 4.4912139,7.7187234"
       id="path1095"
       inkscape:connector-curvature="0" />
    <path
       style="fill:none;stroke:#282828;stroke-width:0.26458332px;stroke-linecap:butt;stroke-linejoin:miter;stroke-opacity:1"
       d="M 2.8455784,7.1873202 2.8112942,9.1586546"
       id="path1097"
       inkscape:connector-curvature="0" />
    <path
       style="fill:none;stroke:#282828;stroke-width:0.26458332px;stroke-linecap:butt;stroke-linejoin:miter;stroke-opacity:1"
       d="M 3.0512826,9.8443361 6.4796902,12.072801"
       id="path1099"
       inkscape:connector-curvature="0" />
    <path
       style="fill:none;stroke:#282828;stroke-width:0.26458332px;stroke-linecap:butt;stroke-linejoin:miter;stroke-opacity:1"
       d="m 6.4796902,12.072801 -1.0285222,0.06857 v 0 0 0 0"
       id="path1103"
       inkscape:connector-curvature="0" />
    <path
       style="fill:none;stroke:#282828;stroke-width:0.26458332px;stroke-linecap:butt;stroke-linejoin:miter;stroke-opacity:1"
       d="M 4.6454922,14.695533 4.9369069,12.432784"
       id="path1105"
       inkscape:connector-curvature="0" />
    <path
       style="fill:none;stroke:#282828;stroke-width:0.26458332px;stroke-linecap:butt;stroke-linejoin:miter;stroke-opacity:1"
       d="M 4.6112083,15.518351 1.2342267,17.318265"
       id="path1107"
       inkscape:connector-curvature="0" />
    <path
       style="fill:none;stroke:#282828;stroke-width:0.26458332px;stroke-linecap:butt;stroke-linejoin:miter;stroke-opacity:1"
       d="M 1.2342267,17.712532 7.731059,18.12394"
       id="path1109"
       inkscape:connector-curvature="0" />
    <path
       style="fill:none;stroke:#282828;stroke-width:0.26458332px;stroke-linecap:butt;stroke-linejoin:miter;stroke-opacity:1"
       d="M 11.502308,10.290029 11.879432,8.9186662"
       id="path1115"
       inkscape:connector-curvature="0" />
    <path
       style="fill:none;stroke:#282828;stroke-width:0.26458332px;stroke-linecap:butt;stroke-linejoin:miter;stroke-opacity:1"
       d="m 10.028092,3.1417993 4.251226,3.7369643"
       id="path1121"
       inkscape:connector-curvature="0" />
    <path
       style="fill:none;stroke:#282828;stroke-width:0.26458332px;stroke-linecap:butt;stroke-linejoin:miter;stroke-opacity:1"
       d="M 14.433596,7.5987293 13.610778,10.152893"
       id="path1123"
       inkscape:connector-curvature="0" />
    <path
       style="fill:none;stroke:#282828;stroke-width:0.26458332px;stroke-linecap:butt;stroke-linejoin:miter;stroke-opacity:1"
       d="m 13.353648,11.027137 v 3.359839"
       id="path1125"
       inkscape:connector-curvature="0" />
    <path
       style="fill:none;stroke:#282828;stroke-width:0.26458332px;stroke-linecap:butt;stroke-linejoin:miter;stroke-opacity:1"
       d="m 13.439358,15.209794 1.079948,2.759868"
       id="path1127"
       inkscape:connector-curvature="0" />
    <path
       style="fill:none;stroke:#282828;stroke-width:0.26458332px;stroke-linecap:butt;stroke-linejoin:miter;stroke-opacity:1"
       d="M 14.999283,18.03823 15.39355,17.386833"
       id="path1129"
       inkscape:connector-curvature="0" />
    <path
       style="fill:none;stroke:#282828;stroke-width:0.26458332px;stroke-linecap:butt;stroke-linejoin:miter;stroke-opacity:1"
       d="M 15.736391,16.615441 15.119277,12.672772"
       id="path1131"
       inkscape:connector-curvature="0" />
    <path
       style="fill:none;stroke:#282828;stroke-width:0.26458332px;stroke-linecap:butt;stroke-linejoin:miter;stroke-opacity:1"
       d="M 8.125326,17.523969 7.3196502,10.444307"
       id="path1133"
       inkscape:connector-curvature="0" />
    <path
       style="fill:none;stroke:#282828;stroke-width:0.26458332px;stroke-linecap:butt;stroke-linejoin:miter;stroke-opacity:1"
       d="m 7.7824853,10.118609 3.2741297,0.462835"
       id="path1135"
       inkscape:connector-curvature="0" />
    <path
       style="fill:none;stroke:#282828;stroke-width:0.26458332px;stroke-linecap:butt;stroke-linejoin:miter;stroke-opacity:1"
       d="m 12.102279,8.1129903 0.891386,-2.8627204 -0.03428,-0.017142"
       id="path1137"
       inkscape:connector-curvature="0" />
    <path
       style="fill:none;stroke:#282828;stroke-width:0.26458332px;stroke-linecap:butt;stroke-linejoin:miter;stroke-opacity:1"
       d="M 13.027949,4.4788783 11.793722,2.113277"
       id="path1139"
       inkscape:connector-curvature="0" />
    <path
       style="fill:none;stroke:#282828;stroke-width:0.26458332px;stroke-linecap:butt;stroke-linejoin:miter;stroke-opacity:1"
       d="M 11.348029,2.0618509 10.045234,2.7132483"
       id="path1141"
       inkscape:connector-curvature="0" />
    <path
       style="fill:none;stroke:#282828;stroke-width:0.26458332px;stroke-linecap:butt;stroke-linejoin:miter;stroke-opacity:1"
       d="m 17.502021,16.804003 -0.66854,-1.594209"
       id="path1143"
       inkscape:connector-curvature="0" />
    <path
       style="fill:none;stroke:#282828;stroke-width:0.26458332px;stroke-linecap:butt;stroke-linejoin:miter;stroke-opacity:1"
       d="M 16.49064,14.404118 C 15.414663,12.533032 15.374292,12.489105 15.416248,12.55762"
       id="path1145"
       inkscape:connector-curvature="0"
       sodipodi:nodetypes="cc" />
  </g>
</svg>
